<?xml version="1.0" encoding="utf-8"?>
<!-- Generator: Adobe Illustrator 23.0.1, SVG Export Plug-In . SVG Version: 6.00 Build 0)  -->
<svg version="1.1" id="Layer_1" xmlns="http://www.w3.org/2000/svg" xmlns:xlink="http://www.w3.org/1999/xlink" x="0px" y="0px"
	 viewBox="0 0 300 50" style="enable-background:new 0 0 300 50;" xml:space="preserve">
<style type="text/css">
	.st0{fill:#0891b2;}
	.st1{fill:#FFFFFF;}
	.st2{fill:#4C4C4C;}
</style>
<g>
	<path class="st0" d="M300,6.31c0-3.17-2.57-5.73-5.73-5.73H5.73C2.57,0.58,0,3.15,0,6.31v37.38c0,3.17,2.57,5.73,5.73,5.73h288.54
		c1.96,0,3.69-0.99,4.73-2.49H299v-0.01c0.63-0.92,1-2.03,1-3.23V6.31z M4.49,43.69V6.31c0-0.69,0.56-1.25,1.25-1.25h60.55v39.87
		H5.73C5.04,44.93,4.49,44.37,4.49,43.69z"/>
	<g>
		<path class="st1" d="M93.08,35.64c-0.34-0.34-0.51-0.8-0.51-1.39V15.72c0-0.61,0.18-1.1,0.55-1.47c0.37-0.37,0.86-0.55,1.47-0.55
			c0.63,0,1.13,0.19,1.5,0.55c0.37,0.37,0.55,0.86,0.55,1.47V32.8h8.89c1.26,0,1.9,0.56,1.9,1.68c0,1.12-0.63,1.68-1.9,1.68H94.5
			C93.89,36.15,93.41,35.98,93.08,35.64z"/>
		<path class="st1" d="M113.2,35.04c-1.59-0.93-2.82-2.26-3.68-3.98c-0.86-1.73-1.3-3.75-1.3-6.07c0-2.32,0.43-4.34,1.28-6.06
			c0.85-1.72,2.08-3.04,3.68-3.97c1.6-0.93,3.49-1.39,5.66-1.39c2.17,0,4.05,0.46,5.64,1.39c1.59,0.93,2.81,2.25,3.67,3.97
			c0.85,1.72,1.28,3.74,1.28,6.06c0,2.32-0.43,4.34-1.3,6.07c-0.86,1.73-2.09,3.06-3.68,3.98c-1.59,0.93-3.46,1.39-5.61,1.39
			C116.68,36.43,114.79,35.97,113.2,35.04z M123.64,31.06c1.15-1.41,1.72-3.44,1.72-6.07c0-2.63-0.57-4.65-1.72-6.06
			c-1.15-1.4-2.75-2.1-4.79-2.1c-2.07,0-3.67,0.7-4.82,2.1c-1.15,1.4-1.72,3.42-1.72,6.06c0,2.64,0.57,4.66,1.72,6.07
			c1.15,1.41,2.76,2.12,4.82,2.12C120.89,33.17,122.49,32.47,123.64,31.06z"/>
		<path class="st1" d="M137.87,35.04c-1.61-0.93-2.85-2.26-3.72-3.98c-0.86-1.73-1.3-3.75-1.3-6.07c0-2.32,0.43-4.34,1.3-6.06
			c0.86-1.72,2.1-3.04,3.72-3.97c1.61-0.93,3.49-1.39,5.64-1.39c1.39,0,2.7,0.21,3.92,0.62c1.22,0.41,2.31,1.01,3.26,1.79
			c0.27,0.21,0.46,0.43,0.57,0.66c0.1,0.23,0.16,0.52,0.16,0.85c0,0.46-0.13,0.85-0.38,1.17c-0.25,0.32-0.56,0.47-0.92,0.47
			c-0.42,0-0.85-0.15-1.3-0.44c-0.91-0.67-1.75-1.14-2.53-1.41c-0.78-0.26-1.64-0.4-2.59-0.4c-2.19,0-3.85,0.69-4.98,2.06
			c-1.13,1.37-1.69,3.38-1.69,6.04c0,2.68,0.56,4.7,1.69,6.07c1.13,1.37,2.79,2.06,4.98,2.06c0.91,0,1.74-0.14,2.51-0.41
			c0.77-0.27,1.64-0.74,2.61-1.39c0.21-0.13,0.42-0.23,0.63-0.32c0.21-0.08,0.43-0.13,0.66-0.13c0.36,0,0.66,0.16,0.92,0.47
			c0.25,0.32,0.38,0.71,0.38,1.17c0,0.32-0.05,0.6-0.16,0.84c-0.11,0.24-0.3,0.47-0.57,0.68c-0.95,0.78-2.03,1.38-3.26,1.79
			c-1.22,0.41-2.53,0.62-3.92,0.62C141.36,36.43,139.48,35.97,137.87,35.04z"/>
		<path class="st1" d="M157.24,34.06c-1.58-1.58-2.37-3.89-2.37-6.93V15.72c0-0.61,0.18-1.1,0.54-1.47
			c0.36-0.37,0.84-0.55,1.45-0.55s1.1,0.19,1.45,0.55c0.36,0.37,0.54,0.86,0.54,1.47v11.64c0,1.92,0.45,3.37,1.36,4.35
			c0.91,0.98,2.23,1.47,3.98,1.47c1.73,0,3.05-0.5,3.95-1.49c0.91-0.99,1.36-2.43,1.36-4.33V15.72c0-0.61,0.18-1.1,0.54-1.47
			c0.36-0.37,0.84-0.55,1.45-0.55c0.61,0,1.1,0.19,1.45,0.55c0.36,0.37,0.54,0.86,0.54,1.47v11.42c0,3.01-0.79,5.32-2.37,6.91
			c-1.58,1.59-3.89,2.39-6.93,2.39C161.14,36.43,158.82,35.64,157.24,34.06z"/>
		<path class="st1" d="M199.39,14.25c0.36,0.37,0.54,0.86,0.54,1.47v18.72c0,0.59-0.17,1.05-0.51,1.39
			c-0.34,0.34-0.78,0.51-1.33,0.51c-0.55,0-0.98-0.17-1.3-0.51c-0.32-0.34-0.47-0.8-0.47-1.39V21.41l-5.38,10.18
			c-0.25,0.46-0.53,0.81-0.82,1.03c-0.3,0.22-0.64,0.33-1.04,0.33c-0.4,0-0.75-0.11-1.04-0.32c-0.3-0.21-0.57-0.56-0.82-1.04
			l-5.41-10.02v12.87c0,0.57-0.16,1.03-0.49,1.38c-0.33,0.35-0.76,0.52-1.31,0.52c-0.55,0-0.98-0.17-1.3-0.51
			c-0.32-0.34-0.47-0.8-0.47-1.39V15.72c0-0.61,0.17-1.1,0.52-1.47c0.35-0.37,0.82-0.55,1.41-0.55c0.82,0,1.46,0.45,1.93,1.36
			l7.02,13.38l6.99-13.38c0.46-0.91,1.09-1.36,1.87-1.36C198.55,13.7,199.03,13.88,199.39,14.25z"/>
		<path class="st1" d="M213.89,35.78c-0.37-0.37-0.55-0.87-0.55-1.5v-18.5c0-0.61,0.17-1.09,0.52-1.42
			c0.35-0.34,0.83-0.51,1.44-0.51h7.78c2.38,0,4.24,0.6,5.57,1.79c1.33,1.19,1.99,2.86,1.99,5.01s-0.66,3.83-1.99,5.03
			c-1.33,1.2-3.18,1.8-5.57,1.8h-5.66v6.8c0,0.63-0.19,1.13-0.55,1.5c-0.37,0.37-0.87,0.55-1.5,0.55
			C214.74,36.34,214.25,36.15,213.89,35.78z M226.77,20.68c0-2.44-1.4-3.67-4.21-3.67h-5.15v7.34h5.15
			C225.37,24.35,226.77,23.13,226.77,20.68z"/>
		<path class="st1" d="M252.23,34.53c0,0.48-0.2,0.9-0.58,1.23c-0.39,0.34-0.84,0.51-1.34,0.51c-0.34,0-0.65-0.09-0.95-0.27
			c-0.3-0.18-0.53-0.46-0.7-0.84l-1.9-4.24h-11.13l-1.9,4.24c-0.17,0.38-0.4,0.66-0.7,0.84c-0.3,0.18-0.62,0.27-0.98,0.27
			c-0.49,0-0.93-0.17-1.33-0.51c-0.4-0.34-0.6-0.75-0.6-1.23c0-0.27,0.06-0.55,0.19-0.82l8.73-18.75c0.19-0.42,0.48-0.74,0.87-0.96
			c0.39-0.22,0.81-0.33,1.25-0.33c0.44,0,0.86,0.11,1.25,0.33c0.39,0.22,0.68,0.54,0.87,0.96l8.76,18.75
			C252.16,33.99,252.23,34.26,252.23,34.53z M237.02,27.77h8.35l-4.17-9.39L237.02,27.77z"/>
		<path class="st1" d="M255.85,35.78c-0.37-0.37-0.55-0.87-0.55-1.5v-18.5c0-0.61,0.17-1.09,0.52-1.42
			c0.35-0.34,0.83-0.51,1.44-0.51h7.78c2.38,0,4.24,0.6,5.57,1.79c1.33,1.19,1.99,2.86,1.99,5.01s-0.66,3.83-1.99,5.03
			c-1.33,1.2-3.18,1.8-5.57,1.8h-5.66v6.8c0,0.63-0.19,1.13-0.55,1.5c-0.37,0.37-0.87,0.55-1.5,0.55
			C256.71,36.34,256.22,36.15,255.85,35.78z M268.73,20.68c0-2.44-1.4-3.67-4.21-3.67h-5.15v7.34h5.15
			C267.33,24.35,268.73,23.13,268.73,20.68z"/>
	</g>
	<g>
		<path class="st2" d="M15.68,37.05c-0.46-0.46-0.69-1.11-0.69-1.95V14.83c0-0.84,0.25-1.52,0.76-2.03s1.19-0.76,2.06-0.76
			c0.87,0,1.56,0.25,2.06,0.76c0.51,0.51,0.76,1.18,0.76,2.03v18.31h9.27c1.76,0,2.64,0.77,2.64,2.32c0,1.52-0.88,2.28-2.64,2.28
			H17.63C16.79,37.74,16.14,37.51,15.68,37.05z"/>
		<path class="st2" d="M36.13,37.2c-0.51-0.51-0.76-1.19-0.76-2.06V14.87c0-0.84,0.23-1.5,0.69-1.95c0.46-0.46,1.11-0.69,1.95-0.69
			h9.08c2.77,0,4.93,0.7,6.48,2.1c1.54,1.4,2.32,3.35,2.32,5.86c0,2.51-0.77,4.46-2.32,5.86c-1.54,1.4-3.7,2.1-6.48,2.1h-6.08v6.98
			c0,0.87-0.25,1.56-0.76,2.06c-0.51,0.51-1.19,0.76-2.06,0.76C37.32,37.96,36.63,37.7,36.13,37.2z M50.6,20.22
			c0-2.46-1.41-3.69-4.23-3.69h-5.36v7.35h5.36C49.19,23.88,50.6,22.66,50.6,20.22z"/>
	</g>
</g>
</svg>
